<svg width="2176" height="512" viewBox="0 0 2176 512" fill="none" xmlns="http://www.w3.org/2000/svg">
<g clip-path="url(#clip0_268_508)">
<path d="M414.348 432H432V0.000415802H512V472C512 494.092 494.091 512 472 512H384H353.656L210.5 0H293.535L414.348 432Z" fill="#DA6F5D" style="fill:#DA6F5D;fill:color(display-p3 0.8564 0.4334 0.3636);fill-opacity:1;"/>
<path d="M97.6517 79.9996L80 79.9996L80 512L-6.10351e-05 512L-1.97716e-05 39.9995C-1.78403e-05 17.9081 17.9086 -0.000452038 40 -0.000450107L128 -0.000442414L158.344 -0.000439761L301.5 512L218.465 512L97.6517 79.9996Z" fill="white" style="fill:white;fill-opacity:1;"/>
</g>
<g clip-path="url(#clip1_268_508)">
<path d="M2021.55 406.569L1915.92 120.033H1966.39L2045.55 355.599H2046.65L2126.08 120.033H2176L2070.65 406.569H2021.55Z" fill="#DA6F5D" style="fill:#DA6F5D;fill:color(display-p3 0.8549 0.4353 0.3647);fill-opacity:1;"/>
<path d="M1668.3 406.57V120.033H1716.29V160.809H1717.39C1725.12 147.401 1736.33 136.38 1751.04 127.747C1765.75 118.931 1783.95 114.523 1805.65 114.523C1837.09 114.523 1861.45 124.074 1878.73 143.176C1896.2 162.095 1904.94 187.902 1904.94 220.596V406.57H1856.95V229.137C1856.95 205.81 1851.43 187.994 1840.4 175.687C1829.55 163.197 1813.09 156.952 1791.03 156.952C1775.95 156.952 1762.81 160.35 1751.59 167.146C1740.38 173.759 1731.64 183.126 1725.39 195.249C1719.32 207.372 1716.29 221.607 1716.29 237.954V406.57H1668.3Z" fill="#DA6F5D" style="fill:#DA6F5D;fill:color(display-p3 0.8549 0.4353 0.3647);fill-opacity:1;"/>
<path d="M1446.6 503C1442.01 503 1437.32 502.725 1432.54 502.174C1427.94 501.806 1424.08 501.347 1420.96 500.796V461.673C1422.98 462.04 1425.28 462.407 1427.85 462.775C1430.61 463.142 1433.46 463.326 1436.4 463.326C1451.66 463.326 1463.8 460.662 1472.81 455.336C1482 450.009 1489.45 439.264 1495.14 423.1L1500.94 406.845L1394.48 120.033H1445.78L1528.52 369.65L1518.31 358.63H1532.65L1522.45 369.65L1605.46 120.033H1655.93L1543.96 424.478C1537.16 442.662 1529.53 457.54 1521.07 469.112C1512.61 480.683 1502.41 489.224 1490.46 494.735C1478.51 500.245 1463.89 503 1446.6 503Z" fill="white" style="fill:white;fill-opacity:1;"/>
<path d="M1331.64 406.569V9H1379.63V406.569H1331.64Z" fill="white" style="fill:white;fill-opacity:1;"/>
<path d="M1056.72 406.57V120.033H1104.7V160.809H1105.81C1113.53 147.401 1124.75 136.38 1139.45 127.747C1154.16 118.931 1172.37 114.523 1194.06 114.523C1225.5 114.523 1249.87 124.074 1267.15 143.176C1284.62 162.095 1293.35 187.902 1293.35 220.596V406.57H1245.36V229.137C1245.36 205.81 1239.84 187.994 1228.81 175.687C1217.97 163.197 1201.51 156.952 1179.45 156.952C1164.37 156.952 1151.22 160.35 1140.01 167.146C1128.79 173.759 1120.06 183.126 1113.81 195.249C1107.74 207.372 1104.7 221.607 1104.7 237.954V406.57H1056.72Z" fill="white" style="fill:white;fill-opacity:1;"/>
<path d="M900.934 412.08C874.458 412.08 851.199 406.019 831.158 393.896C811.3 381.773 795.764 364.599 784.548 342.374C773.516 319.966 768 293.608 768 263.301V262.75C768 232.26 773.516 205.994 784.548 183.953C795.764 161.728 811.3 144.646 831.158 132.707C851.199 120.584 874.366 114.523 900.658 114.523C927.135 114.523 950.302 120.584 970.159 132.707C990.201 144.646 1005.74 161.728 1016.77 183.953C1027.98 205.994 1033.59 232.26 1033.59 262.75V263.301C1033.59 293.792 1027.98 320.149 1016.77 342.374C1005.74 364.599 990.293 381.773 970.435 393.896C950.578 406.019 927.411 412.08 900.934 412.08ZM901.21 369.65C918.126 369.65 932.743 365.518 945.062 357.252C957.565 348.803 967.218 336.68 974.021 320.884C981.007 304.904 984.501 285.71 984.501 263.301V262.75C984.501 240.342 981.007 221.239 974.021 205.443C967.218 189.647 957.473 177.616 944.786 169.35C932.283 161.085 917.574 156.952 900.658 156.952C884.111 156.952 869.493 161.177 856.807 169.626C844.304 177.891 834.559 189.922 827.572 205.718C820.585 221.331 817.092 240.342 817.092 262.75V263.301C817.092 285.71 820.585 304.904 827.572 320.884C834.559 336.68 844.304 348.803 856.807 357.252C869.493 365.518 884.294 369.65 901.21 369.65Z" fill="white" style="fill:white;fill-opacity:1;"/>
</g>
<defs>
<clipPath id="clip0_268_508">
<rect width="512" height="512" fill="white" style="fill:white;fill-opacity:1;"/>
</clipPath>
<clipPath id="clip1_268_508">
<rect width="1408" height="494" fill="white" style="fill:white;fill-opacity:1;" transform="translate(768 9)"/>
</clipPath>
</defs>
</svg>
